<svg width="23" height="15" viewBox="0 0 23 15" fill="none" xmlns="http://www.w3.org/2000/svg">
  <path d="M11.5 15C10.8073 15 10.1406 14.9115 9.5 14.7344C8.86458 14.5573 8.26823 14.3073 7.71094 13.9844C7.15365 13.6562 6.64583 13.2656 6.1875 12.8125C5.73438 12.3542 5.34375 11.8464 5.01562 11.2891C4.69271 10.7318 4.44271 10.1354 4.26562 9.5C4.08854 8.85938 4 8.19271 4 7.5C4 6.80729 4.08854 6.14323 4.26562 5.50781C4.44271 4.86719 4.69271 4.26823 5.01562 3.71094C5.34375 3.15365 5.73438 2.64844 6.1875 2.19531C6.64583 1.73698 7.15365 1.34635 7.71094 1.02344C8.26823 0.695312 8.86458 0.442708 9.5 0.265625C10.1406 0.0885417 10.8073 0 11.5 0C12.1927 0 12.8568 0.0885417 13.4922 0.265625C14.1328 0.442708 14.7318 0.695312 15.2891 1.02344C15.8464 1.34635 16.3516 1.73698 16.8047 2.19531C17.263 2.64844 17.6536 3.15365 17.9766 3.71094C18.3047 4.26823 18.5573 4.86719 18.7344 5.50781C18.9115 6.14323 19 6.80729 19 7.5C19 8.19271 18.9115 8.85938 18.7344 9.5C18.5573 10.1354 18.3047 10.7318 17.9766 11.2891C17.6536 11.8464 17.263 12.3542 16.8047 12.8125C16.3516 13.2656 15.8464 13.6562 15.2891 13.9844C14.7318 14.3073 14.1328 14.5573 13.4922 14.7344C12.8568 14.9115 12.1927 15 11.5 15ZM11.5 1C10.901 1 10.3255 1.07812 9.77344 1.23438C9.22135 1.39062 8.70312 1.60938 8.21875 1.89062C7.73958 2.17188 7.30208 2.51042 6.90625 2.90625C6.51042 3.30208 6.17188 3.74219 5.89062 4.22656C5.60938 4.70573 5.39062 5.22396 5.23438 5.78125C5.07812 6.33333 5 6.90625 5 7.5C5 8.09375 5.07812 8.66927 5.23438 9.22656C5.39062 9.77865 5.60938 10.2969 5.89062 10.7812C6.17188 11.2604 6.51042 11.6979 6.90625 12.0938C7.30208 12.4896 7.73958 12.8281 8.21875 13.1094C8.70312 13.3906 9.22135 13.6094 9.77344 13.7656C10.3255 13.9219 10.901 14 11.5 14C12.0938 14 12.6667 13.9219 13.2188 13.7656C13.776 13.6094 14.2943 13.3906 14.7734 13.1094C15.2578 12.8281 15.6979 12.4896 16.0938 12.0938C16.4896 11.6979 16.8281 11.2604 17.1094 10.7812C17.3906 10.2969 17.6094 9.77865 17.7656 9.22656C17.9219 8.67448 18 8.09896 18 7.5C18 6.90625 17.9219 6.33333 17.7656 5.78125C17.6094 5.22396 17.3906 4.70573 17.1094 4.22656C16.8281 3.74219 16.4896 3.30208 16.0938 2.90625C15.6979 2.51042 15.2578 2.17188 14.7734 1.89062C14.2943 1.60938 13.776 1.39062 13.2188 1.23438C12.6667 1.07812 12.0938 1 11.5 1ZM11 6H12V11H11V6ZM11 4H12V5H11V4Z" fill="#3B79B7"/>
</svg>
