<svg width="17" height="16" viewBox="0 0 17 16" fill="none" xmlns="http://www.w3.org/2000/svg">
<path fill-rule="evenodd" clip-rule="evenodd" d="M1.11815 14.8571H15.6541V16H0V0H1.11815V10.1422L4.53451 6.65033L4.8919 6.28504L5.2493 6.65033L6.84866 8.28504L7.46965 7.65033L8.23838 6.86462L8.95317 7.56395L8.18444 8.34967L7.20606 9.34967L6.84866 9.71496L6.49127 9.34967L4.8919 7.71496L1.11815 11.5721V14.8571ZM13.5655 2.15033L13.2081 1.78504L12.8507 2.15033L12.082 2.93605L12.7968 3.63538L13.2081 3.21496L13.5496 3.56395L14.2644 2.86462L13.5655 2.15033ZM14.5979 4.63538L15.2967 5.34967L16.0115 4.65033L15.3126 3.93605L14.5979 4.63538ZM10.1063 6.38538L11.6437 4.81396L10.9289 4.11462L9.39147 5.68605L10.1063 6.38538Z" fill="#333333"/>
</svg>
