<svg width="17" height="16" viewBox="0 0 17 16" fill="none" xmlns="http://www.w3.org/2000/svg">
<path fill-rule="evenodd" clip-rule="evenodd" d="M1.11815 14.8571H7.82705V16H0V0H1.11815V10.1422L4.53451 6.65033L4.89191 6.28504L5.2493 6.65033L6.84867 8.28504L7.46965 7.65033L8.23838 6.86462L8.95317 7.56395L8.18444 8.34967L7.20606 9.34967L6.84867 9.71496L6.49127 9.34967L4.89191 7.71496L1.11815 11.5721V14.8571ZM13.5655 2.15033L13.2081 1.78504L12.8507 2.15033L12.082 2.93605L12.7968 3.63538L13.2081 3.21496L13.5496 3.56395L14.2644 2.86462L13.5655 2.15033ZM14.5979 4.63538L15.2967 5.34967L16.0115 4.65033L15.3126 3.93605L14.5979 4.63538ZM10.1063 6.38538L11.6437 4.81395L10.9289 4.11462L9.39147 5.68605L10.1063 6.38538ZM14.9822 11.9293V11.8585L15.9999 11.2259L15.3751 9.72102L14.2082 9.98821C14.1453 9.9201 14.0798 9.85462 14.0117 9.79175L14.2789 8.62475L12.774 8L12.1414 9.01768H12.0706C12.0471 9.01506 12.0235 9.01375 11.9999 9.01375C11.9763 9.01375 11.9527 9.01506 11.9292 9.01768H11.8584L11.2258 8L9.72092 8.62475L9.98811 9.79175C9.92 9.85462 9.85452 9.9201 9.79165 9.98821L8.62465 9.72102L7.9999 11.2259L9.01758 11.8585C9.01758 11.8821 9.01627 11.9057 9.01365 11.9293V12V12.0707C9.01627 12.0943 9.01758 12.1179 9.01758 12.1415L7.9999 12.7741L8.62465 14.279L9.79165 14.0118C9.85452 14.0799 9.92 14.1454 9.98811 14.2083L9.72092 15.3752L11.2258 16L11.8584 14.9823C11.882 14.9823 11.9056 14.9836 11.9292 14.9862H11.9999H12.0706C12.0942 14.9836 12.1178 14.9823 12.1414 14.9823L12.774 16L14.2789 15.3752L14.0117 14.2083C14.0798 14.1454 14.1453 14.0799 14.2082 14.0118L15.3751 14.279L15.9999 12.7741L14.9822 12.1415V12.0707C14.9848 12.0472 14.9861 12.0236 14.9861 12C14.9861 11.9764 14.9848 11.9528 14.9822 11.9293ZM14.5382 12.1847C14.533 12.2449 14.5277 12.3065 14.5225 12.3694L15.4498 12.9509L15.1119 13.7682L14.0471 13.5206C13.9632 13.6202 13.8794 13.7132 13.7956 13.7996C13.7118 13.8834 13.6201 13.9659 13.5205 14.0472L13.7681 15.112L12.9508 15.4499L12.3732 14.5226L12.1846 14.5383C12.1243 14.5435 12.0628 14.5462 11.9999 14.5462C11.9397 14.5462 11.8781 14.5435 11.8152 14.5383C11.7524 14.5331 11.6908 14.5278 11.6305 14.5226L11.049 15.4499L10.2317 15.112L10.4793 14.0472C10.3797 13.9633 10.2867 13.8795 10.2003 13.7957C10.1165 13.7119 10.034 13.6202 9.95275 13.5206L8.88792 13.7682L8.55 12.9509L9.47731 12.3733C9.47207 12.313 9.46683 12.2515 9.46159 12.1886C9.45635 12.1257 9.45373 12.0642 9.45373 12.0039C9.45373 11.9411 9.45635 11.8795 9.46159 11.8193L9.47731 11.6306L8.55 11.0491L8.88792 10.2318L9.95275 10.4794C10.0366 10.3798 10.1204 10.2881 10.2042 10.2043C10.288 10.1179 10.3797 10.0341 10.4793 9.95285L10.2317 8.88802L11.049 8.5501L11.6266 9.47741C11.6895 9.47217 11.751 9.46693 11.8113 9.46169C11.8742 9.45645 11.937 9.45383 11.9999 9.45383C12.0601 9.45383 12.1217 9.45645 12.1846 9.46169C12.2474 9.46693 12.309 9.47217 12.3693 9.47741L12.9508 8.5501L13.7681 8.88802L13.5205 9.95285C13.6201 10.0367 13.7118 10.1205 13.7956 10.2043C13.882 10.2881 13.9658 10.3798 14.0471 10.4794L15.1119 10.2318L15.4498 11.0491L14.5225 11.6267C14.5277 11.687 14.533 11.7485 14.5382 11.8114C14.5435 11.8743 14.5461 11.9358 14.5461 11.9961C14.5461 12.0589 14.5435 12.1218 14.5382 12.1847ZM12.5736 10.6405C12.3954 10.5619 12.2042 10.5226 11.9999 10.5226C11.7956 10.5226 11.603 10.5619 11.4223 10.6405C11.2442 10.7164 11.0883 10.8212 10.9547 10.9548C10.8211 11.0884 10.715 11.2456 10.6364 11.4263C10.5605 11.6045 10.5225 11.7957 10.5225 12C10.5225 12.2043 10.5605 12.3969 10.6364 12.5776C10.715 12.7557 10.8211 12.9116 10.9547 13.0452C11.0883 13.1788 11.2442 13.2849 11.4223 13.3635C11.603 13.4394 11.7956 13.4774 11.9999 13.4774C12.2042 13.4774 12.3954 13.4394 12.5736 13.3635C12.7543 13.2849 12.9115 13.1788 13.0451 13.0452C13.1787 12.9116 13.2835 12.7557 13.3594 12.5776C13.438 12.3969 13.4773 12.2043 13.4773 12C13.4773 11.7957 13.438 11.6045 13.3594 11.4263C13.2835 11.2456 13.1787 11.0884 13.0451 10.9548C12.9115 10.8212 12.7543 10.7164 12.5736 10.6405ZM12.4046 12.9587C12.2789 13.0111 12.144 13.0373 11.9999 13.0373C11.8558 13.0373 11.7209 13.0111 11.5952 12.9587C11.4694 12.9037 11.3594 12.8291 11.2651 12.7348C11.1708 12.6405 11.0962 12.5305 11.0412 12.4047C10.9888 12.279 10.9626 12.1441 10.9626 12C10.9626 11.8559 10.9888 11.721 11.0412 11.5953C11.0962 11.4695 11.1708 11.3595 11.2651 11.2652C11.3594 11.1709 11.4694 11.0976 11.5952 11.0452C11.7209 10.9902 11.8558 10.9627 11.9999 10.9627C12.144 10.9627 12.2789 10.9902 12.4046 11.0452C12.5304 11.0976 12.6404 11.1709 12.7347 11.2652C12.829 11.3595 12.9023 11.4695 12.9547 11.5953C13.0097 11.721 13.0372 11.8559 13.0372 12C13.0372 12.1441 13.0097 12.279 12.9547 12.4047C12.9023 12.5305 12.829 12.6405 12.7347 12.7348C12.6404 12.8291 12.5304 12.9037 12.4046 12.9587Z" fill="black"/>
</svg>
