<svg width="44" height="44" viewBox="0 0 44 44" fill="none" xmlns="http://www.w3.org/2000/svg">
<path d="M29.25 20.25C29.9701 20.25 30.6491 20.3867 31.2871 20.6602C31.9251 20.9336 32.4811 21.3073 32.9551 21.7812C33.429 22.2552 33.8027 22.8158 34.0762 23.4629C34.3496 24.11 34.4863 24.7891 34.4863 25.5C34.4863 26.2292 34.3496 26.9082 34.0762 27.5371C33.8027 28.166 33.429 28.722 32.9551 29.2051C32.4811 29.6882 31.9251 30.0664 31.2871 30.3398C30.6491 30.6133 29.9701 30.75 29.25 30.75C28.7031 30.75 28.1699 30.668 27.6504 30.5039C27.1309 30.3398 26.6523 30.0983 26.2148 29.7793L20.2402 35.7402C20.0671 35.9134 19.862 36 19.625 36C19.388 36 19.1829 35.9134 19.0098 35.7402C18.8366 35.5671 18.75 35.362 18.75 35.125C18.75 34.888 18.8366 34.6829 19.0098 34.5098L24.9707 28.5352C24.6517 28.0977 24.4102 27.6191 24.2461 27.0996C24.082 26.5801 24 26.0469 24 25.5C24 24.7799 24.1367 24.1009 24.4102 23.4629C24.6836 22.8249 25.0573 22.2689 25.5312 21.7949C26.0052 21.321 26.5612 20.9427 27.1992 20.6602C27.8372 20.3776 28.5208 20.2409 29.25 20.25ZM29.25 29C29.7331 29 30.1842 28.9089 30.6035 28.7266C31.0228 28.5443 31.3965 28.2936 31.7246 27.9746C32.0527 27.6556 32.3034 27.2865 32.4766 26.8672C32.6497 26.4479 32.7409 25.9922 32.75 25.5C32.75 25.0169 32.6589 24.5658 32.4766 24.1465C32.2943 23.7272 32.0436 23.3535 31.7246 23.0254C31.4056 22.6973 31.0365 22.4466 30.6172 22.2734C30.1979 22.1003 29.7422 22.0091 29.25 22C28.7669 22 28.3158 22.0911 27.8965 22.2734C27.4772 22.4557 27.1035 22.7064 26.7754 23.0254C26.4473 23.3444 26.1966 23.7135 26.0234 24.1328C25.8503 24.5521 25.7591 25.0078 25.75 25.5C25.75 25.9831 25.8411 26.4342 26.0234 26.8535C26.2057 27.2728 26.4564 27.6465 26.7754 27.9746C27.0944 28.3027 27.4635 28.5534 27.8828 28.7266C28.3021 28.8997 28.7578 28.9909 29.25 29ZM20.2812 30.75L18.5312 32.5H10V8H21.7441L29.25 15.5059V18.5H27.5V16.75H20.5V9.75H11.75V30.75H20.2812ZM22.25 15H26.2559L22.25 10.9941V15Z" fill="white"/>
</svg>
