<svg width="44" height="44" viewBox="0 0 44 44" fill="none" xmlns="http://www.w3.org/2000/svg">
<path d="M28.9883 28.9316C27.9857 27.8379 26.819 26.9948 25.4883 26.4023C24.1576 25.8099 22.7448 25.5091 21.25 25.5C20.2839 25.5 19.3542 25.623 18.4609 25.8691C17.5677 26.1152 16.7337 26.4707 15.959 26.9355C15.1842 27.4004 14.4733 27.9473 13.8262 28.5762C13.179 29.2051 12.6322 29.9115 12.1855 30.6953C11.7389 31.4792 11.388 32.3177 11.1328 33.2109C10.8776 34.1042 10.75 35.0339 10.75 36H9C9 34.7057 9.19596 33.4616 9.58789 32.2676C9.97982 31.0736 10.5312 29.9661 11.2422 28.9453C11.9531 27.9245 12.8053 27.0358 13.7988 26.2793C14.7923 25.5228 15.8997 24.9167 17.1211 24.4609C15.9909 23.8503 15.0339 23.0299 14.25 22H13.375C13.0104 22 12.6686 21.9316 12.3496 21.7949C12.0306 21.6582 11.7526 21.4714 11.5156 21.2344C11.2786 20.9974 11.0918 20.7194 10.9551 20.4004C10.8184 20.0814 10.75 19.7396 10.75 19.375V14.125C10.75 13.7604 10.8184 13.4186 10.9551 13.0996C11.0918 12.7806 11.2786 12.5026 11.5156 12.2656C11.7526 12.0286 12.0306 11.8418 12.3496 11.7051C12.6686 11.5684 13.0104 11.5 13.375 11.5C13.6484 11.5 13.9082 11.541 14.1543 11.623C14.5645 11.0579 15.0339 10.5521 15.5625 10.1055C16.0911 9.65885 16.6608 9.27604 17.2715 8.95703C17.8822 8.63802 18.5202 8.40104 19.1855 8.24609C19.8509 8.09115 20.5391 8.00911 21.25 8C22.4622 8 23.597 8.22786 24.6543 8.68359C25.7116 9.13932 26.6413 9.76367 27.4434 10.5566C28.2454 11.3496 28.8698 12.2747 29.3164 13.332C29.763 14.3893 29.9909 15.5286 30 16.75C30 17.5612 29.8952 18.3451 29.6855 19.1016C29.4759 19.8581 29.1706 20.5736 28.7695 21.248C28.3685 21.9225 27.8809 22.5286 27.3066 23.0664C26.7324 23.6042 26.0898 24.0736 25.3789 24.4746C26.3086 24.8118 27.179 25.2493 27.9902 25.7871C28.8014 26.3249 29.5443 26.9583 30.2188 27.6875L28.9883 28.9316ZM12.5 19.375C12.5 19.612 12.5866 19.8171 12.7598 19.9902C12.9329 20.1634 13.138 20.25 13.375 20.25H14.25V14.125C14.25 13.888 14.1634 13.6829 13.9902 13.5098C13.8171 13.3366 13.612 13.25 13.375 13.25C13.138 13.25 12.9329 13.3366 12.7598 13.5098C12.5866 13.6829 12.5 13.888 12.5 14.125V19.375ZM16.6152 22C17.2533 22.5651 17.9688 22.998 18.7617 23.2988C19.5547 23.5996 20.3841 23.75 21.25 23.75C22.2161 23.75 23.123 23.5677 23.9707 23.2031C24.8184 22.8385 25.5612 22.3418 26.1992 21.7129C26.8372 21.084 27.3385 20.3411 27.7031 19.4844C28.0677 18.6276 28.25 17.7161 28.25 16.75C28.25 15.7839 28.0677 14.877 27.7031 14.0293C27.3385 13.1816 26.8418 12.4388 26.2129 11.8008C25.584 11.1628 24.8411 10.6615 23.9844 10.2969C23.1276 9.93229 22.2161 9.75 21.25 9.75C20.6849 9.75 20.1335 9.8138 19.5957 9.94141C19.0579 10.069 18.5475 10.2604 18.0645 10.5156C17.5814 10.7708 17.1257 11.0807 16.6973 11.4453C16.2689 11.8099 15.8906 12.2201 15.5625 12.6758C15.7083 12.8854 15.8177 13.1133 15.8906 13.3594C15.9635 13.6055 16 13.8607 16 14.125V20.25H20.375C20.612 20.25 20.8171 20.3366 20.9902 20.5098C21.1634 20.6829 21.25 20.888 21.25 21.125C21.25 21.362 21.1634 21.5671 20.9902 21.7402C20.8171 21.9134 20.612 22 20.375 22H16.6152ZM34.9902 27.8652L27.375 35.4941L23.6973 31.8027L24.9277 30.5723L27.375 33.0059L33.7598 26.6348L34.9902 27.8652Z" fill="white"/>
</svg>
