<svg width="44" height="44" viewBox="0 0 44 44" fill="none" xmlns="http://www.w3.org/2000/svg">
<path d="M30.75 20.25C31.4701 20.25 32.1491 20.3867 32.7871 20.6602C33.4251 20.9336 33.9811 21.3118 34.4551 21.7949C34.929 22.278 35.3027 22.834 35.5762 23.4629C35.8496 24.0918 35.9909 24.7708 36 25.5C36 26.2201 35.8633 26.8991 35.5898 27.5371C35.3164 28.1751 34.9382 28.7311 34.4551 29.2051C33.972 29.679 33.416 30.0527 32.7871 30.3262C32.1582 30.5996 31.4792 30.7409 30.75 30.75C30.2031 30.75 29.6699 30.668 29.1504 30.5039C28.6309 30.3398 28.1523 30.0983 27.7148 29.7793C27.569 29.9251 27.3275 30.1758 26.9902 30.5312C26.653 30.8867 26.2565 31.2969 25.8008 31.7617C25.3451 32.2266 24.8757 32.7051 24.3926 33.1973C23.9095 33.6895 23.4401 34.1452 22.9844 34.5645C22.5286 34.9837 22.1413 35.3255 21.8223 35.5898C21.5033 35.8542 21.2708 35.9909 21.125 36C20.888 36 20.6829 35.9134 20.5098 35.7402C20.3366 35.5671 20.25 35.362 20.25 35.125C20.25 34.9974 20.3822 34.765 20.6465 34.4277C20.9108 34.0905 21.2526 33.7031 21.6719 33.2656C22.0911 32.8281 22.5469 32.3633 23.0391 31.8711C23.5312 31.3789 24.0098 30.9049 24.4746 30.4492C24.9395 29.9935 25.3496 29.6016 25.7051 29.2734C26.0605 28.9453 26.3158 28.6992 26.4707 28.5352C26.1517 28.0977 25.9102 27.6191 25.7461 27.0996C25.582 26.5801 25.5 26.0469 25.5 25.5C25.5 24.7799 25.6367 24.1009 25.9102 23.4629C26.1836 22.8249 26.5618 22.2689 27.0449 21.7949C27.528 21.321 28.084 20.9473 28.7129 20.6738C29.3418 20.4004 30.0208 20.2591 30.75 20.25ZM30.75 29C31.224 29 31.6751 28.9089 32.1035 28.7266C32.5319 28.5443 32.901 28.2936 33.2109 27.9746C33.5208 27.6556 33.7715 27.2865 33.9629 26.8672C34.1543 26.4479 34.25 25.9922 34.25 25.5C34.25 25.026 34.1589 24.5749 33.9766 24.1465C33.7943 23.7181 33.5436 23.349 33.2246 23.0391C32.9056 22.7292 32.5319 22.4785 32.1035 22.2871C31.6751 22.0957 31.224 22 30.75 22C30.2669 22 29.8158 22.0911 29.3965 22.2734C28.9772 22.4557 28.6081 22.7064 28.2891 23.0254C27.9701 23.3444 27.7194 23.7181 27.5371 24.1465C27.3548 24.5749 27.2591 25.026 27.25 25.5C27.25 25.9831 27.3411 26.4342 27.5234 26.8535C27.7057 27.2728 27.9564 27.6419 28.2754 27.9609C28.5944 28.2799 28.9635 28.5306 29.3828 28.7129C29.8021 28.8952 30.2578 28.9909 30.75 29ZM11.5 27.25V23.75H8V8H29V11.5H32.5V18.7461C32.2083 18.6732 31.9167 18.6139 31.625 18.5684C31.3333 18.5228 31.0417 18.5 30.75 18.5V13.25H13.25V25.5H23.75C23.75 25.7917 23.7728 26.0833 23.8184 26.375C23.8639 26.6667 23.9232 26.9583 23.9961 27.25H11.5ZM11.5 22V11.5H27.25V9.75H9.75V22H11.5Z" fill="white"/>
</svg>
