<svg width="44" height="44" viewBox="0 0 44 44" fill="none" xmlns="http://www.w3.org/2000/svg">
<path d="M36 10.8667V35.1333H8V10.8667H11.7333V9H17.3333C18.1889 9 19.0104 9.13125 19.7979 9.39375C20.5854 9.65625 21.3194 10.05 22 10.575C22.6708 10.05 23.4 9.65625 24.1875 9.39375C24.975 9.13125 25.8014 9 26.6667 9H32.2667V10.8667H36ZM26.6667 10.8667C25.9861 10.8667 25.325 10.9785 24.6833 11.2021C24.0417 11.4257 23.4583 11.7611 22.9333 12.2083V30.4958C23.5069 30.175 24.1097 29.9368 24.7417 29.7813C25.3736 29.6257 26.0153 29.5431 26.6667 29.5333H30.4V10.8667H26.6667ZM13.6 29.5333H17.3333C17.9847 29.5333 18.6264 29.6111 19.2583 29.7667C19.8903 29.9222 20.4931 30.1653 21.0667 30.4958V12.2083C20.5417 11.7708 19.9583 11.4403 19.3167 11.2167C18.675 10.9931 18.0139 10.8764 17.3333 10.8667H13.6V29.5333ZM9.86667 33.2667H21.6208C21.3097 32.9653 20.9938 32.7028 20.6729 32.4792C20.3521 32.2556 20.0215 32.0611 19.6813 31.8958C19.341 31.7306 18.9764 31.609 18.5875 31.5313C18.1986 31.4535 17.7806 31.4097 17.3333 31.4H11.7333V12.7333H9.86667V33.2667ZM34.1333 12.7333H32.2667V31.4H26.6667C26.2194 31.4 25.8063 31.4389 25.4271 31.5167C25.0479 31.5944 24.6833 31.716 24.3333 31.8813C23.9833 32.0465 23.6479 32.241 23.3271 32.4646C23.0063 32.6882 22.6903 32.9556 22.3792 33.2667H34.1333V12.7333Z" fill="white"/>
</svg>
