<svg width="44" height="44" viewBox="0 0 44 44" fill="none" xmlns="http://www.w3.org/2000/svg">
<path d="M25.7324 8.51953C27.2454 8.92969 28.6309 9.56771 29.8887 10.4336C31.1465 11.2995 32.2266 12.3294 33.1289 13.5234C34.0312 14.7174 34.7376 16.0345 35.248 17.4746C35.7585 18.9147 36.0091 20.4232 36 22C36 23.2852 35.8359 24.5247 35.5078 25.7188C35.1797 26.9128 34.7103 28.0293 34.0996 29.0684C33.4889 30.1074 32.7598 31.0508 31.9121 31.8984C31.0645 32.7461 30.1165 33.4753 29.0684 34.0859C28.0202 34.6966 26.9036 35.166 25.7188 35.4941C24.5339 35.8223 23.2943 35.9909 22 36C20.7148 36 19.4753 35.8359 18.2812 35.5078C17.0872 35.1797 15.9707 34.7103 14.9316 34.0996C13.8926 33.4889 12.9492 32.7598 12.1016 31.9121C11.2539 31.0645 10.5247 30.1165 9.91406 29.0684C9.30339 28.0202 8.83398 26.9082 8.50586 25.7324C8.17773 24.5566 8.00911 23.3125 8 22C8 20.724 8.16862 19.4844 8.50586 18.2812C8.8431 17.0781 9.32161 15.9479 9.94141 14.8906C10.5612 13.8333 11.3223 12.8672 12.2246 11.9922C13.127 11.1172 14.1341 10.3698 15.2461 9.75H11.5V8H18.5V15H16.75V10.9395C15.6836 11.4499 14.722 12.0879 13.8652 12.8535C13.0085 13.6191 12.2702 14.485 11.6504 15.4512C11.0306 16.4173 10.5612 17.4564 10.2422 18.5684C9.92318 19.6803 9.75911 20.8242 9.75 22C9.75 23.1211 9.89583 24.2012 10.1875 25.2402C10.4792 26.2793 10.8893 27.2546 11.418 28.166C11.9466 29.0775 12.5892 29.9069 13.3457 30.6543C14.1022 31.4017 14.9271 32.0397 15.8203 32.5684C16.7135 33.097 17.6888 33.5117 18.7461 33.8125C19.8034 34.1133 20.888 34.2591 22 34.25C23.1211 34.25 24.2012 34.1042 25.2402 33.8125C26.2793 33.5208 27.2546 33.1107 28.166 32.582C29.0775 32.0534 29.9069 31.4108 30.6543 30.6543C31.4017 29.8978 32.0397 29.0729 32.5684 28.1797C33.097 27.2865 33.5117 26.3112 33.8125 25.2539C34.1133 24.1966 34.2591 23.112 34.25 22C34.25 20.6328 34.0312 19.3158 33.5938 18.0488C33.1562 16.7819 32.5365 15.6289 31.7344 14.5898C30.9323 13.5508 29.9889 12.653 28.9043 11.8965C27.8197 11.14 26.6074 10.5749 25.2676 10.2012L25.7324 8.51953Z" fill="white"/>
</svg>
