<svg width="44" height="44" viewBox="0 0 44 44" fill="none" xmlns="http://www.w3.org/2000/svg">
<path d="M11.5 9.75H8V8H11.5V9.75ZM16.75 9.75H13.25V8H16.75V9.75ZM22 9.75H18.5V8H22V9.75ZM27.25 9.75H23.75V8H27.25V9.75ZM32.5 9.75H29V8H32.5V9.75ZM8 11.5H9.75V15H8V11.5ZM8 16.75H9.75V20.25H8V16.75ZM8 22H9.75V25.5H8V22ZM8 27.25H9.75V30.75H8V27.25ZM8 32.5H9.75V36H8V32.5ZM32.5 34.25H36V36H32.5V34.25ZM27.25 34.25H30.75V36H27.25V34.25ZM22 34.25H25.5V36H22V34.25ZM16.75 34.25H20.25V36H16.75V34.25ZM11.5 34.25H15V36H11.5V34.25ZM34.25 29H36V32.5H34.25V29ZM34.25 23.75H36V27.25H34.25V23.75ZM34.25 18.5H36V22H34.25V18.5ZM34.25 13.25H36V16.75H34.25V13.25ZM36 8V11.5H34.25V8H36Z" fill="white"/>
</svg>
