<svg width="44" height="44" viewBox="0 0 44 44" fill="none" xmlns="http://www.w3.org/2000/svg">
<path d="M22 8C23.2931 8 24.5326 8.16528 25.7188 8.49583C26.9049 8.82639 28.0229 9.29306 29.0729 9.89583C30.1229 10.4986 31.066 11.2278 31.9021 12.0833C32.7382 12.9389 33.4674 13.8868 34.0896 14.9271C34.7118 15.9674 35.1833 17.0806 35.5042 18.2667C35.825 19.4528 35.9903 20.6972 36 22C36 23.2931 35.8347 24.5326 35.5042 25.7188C35.1736 26.9049 34.7069 28.0229 34.1042 29.0729C33.5014 30.1229 32.7722 31.066 31.9167 31.9021C31.0611 32.7382 30.1132 33.4674 29.0729 34.0896C28.0326 34.7118 26.9194 35.1833 25.7333 35.5042C24.5472 35.825 23.3028 35.9903 22 36C20.7069 36 19.4674 35.8347 18.2813 35.5042C17.0951 35.1736 15.9771 34.7069 14.9271 34.1042C13.8771 33.5014 12.934 32.7722 12.0979 31.9167C11.2618 31.0611 10.5326 30.1132 9.91042 29.0729C9.28819 28.0326 8.81667 26.9194 8.49583 25.7333C8.175 24.5472 8.00972 23.3028 8 22C8 20.7069 8.16528 19.4674 8.49583 18.2813C8.82639 17.0951 9.29306 15.9771 9.89583 14.9271C10.4986 13.8771 11.2278 12.934 12.0833 12.0979C12.9389 11.2618 13.8868 10.5326 14.9271 9.91042C15.9674 9.28819 17.0806 8.81667 18.2667 8.49583C19.4528 8.175 20.6972 8.00972 22 8ZM22 34.1333C23.1181 34.1333 24.1924 33.9875 25.2229 33.6958C26.2535 33.4042 27.216 32.9958 28.1104 32.4708C29.0049 31.9458 29.8264 31.3139 30.575 30.575C31.3236 29.8361 31.9556 29.0194 32.4708 28.125C32.9861 27.2306 33.3944 26.2632 33.6958 25.2229C33.9972 24.1826 34.1431 23.1083 34.1333 22C34.1333 20.8819 33.9875 19.8076 33.6958 18.7771C33.4042 17.7465 32.9958 16.784 32.4708 15.8896C31.9458 14.9951 31.3139 14.1736 30.575 13.425C29.8361 12.6764 29.0194 12.0444 28.125 11.5292C27.2306 11.0139 26.2632 10.6056 25.2229 10.3042C24.1826 10.0028 23.1083 9.85694 22 9.86667C20.8819 9.86667 19.8076 10.0125 18.7771 10.3042C17.7465 10.5958 16.784 11.0042 15.8896 11.5292C14.9951 12.0542 14.1736 12.6861 13.425 13.425C12.6764 14.1639 12.0444 14.9806 11.5292 15.875C11.0139 16.7694 10.6056 17.7368 10.3042 18.7771C10.0028 19.8174 9.85694 20.8917 9.86667 22C9.86667 23.1181 10.0125 24.1924 10.3042 25.2229C10.5958 26.2535 11.0042 27.216 11.5292 28.1104C12.0542 29.0049 12.6861 29.8264 13.425 30.575C14.1639 31.3236 14.9806 31.9556 15.875 32.4708C16.7694 32.9861 17.7368 33.3944 18.7771 33.6958C19.8174 33.9972 20.8917 34.1431 22 34.1333ZM22.9333 21.0667H30.4V22.9333H22.9333V30.4H21.0667V22.9333H13.6V21.0667H21.0667V13.6H22.9333V21.0667Z" fill="white"/>
</svg>
