<svg width="44" height="44" viewBox="0 0 44 44" fill="none" xmlns="http://www.w3.org/2000/svg">
<path d="M33.1417 9.00121C33.4029 9.00121 33.6447 9.04957 33.8671 9.14629C34.0896 9.24301 34.2831 9.37359 34.4475 9.53801C34.6119 9.70244 34.7473 9.90072 34.8537 10.1329C34.9601 10.365 35.0085 10.6068 34.9988 10.8583V35H12.3224L9 31.6631V10.8583C9 10.5971 9.04836 10.3553 9.14508 10.1329C9.2418 9.91039 9.37238 9.71695 9.53681 9.55252C9.70123 9.3881 9.89951 9.25269 10.1316 9.14629C10.3638 9.0399 10.6056 8.99154 10.8571 9.00121H33.1417ZM14.5712 20.1435H29.4276V10.8583H14.5712V20.1435ZM25.7135 27.5718H16.4282V33.1429H18.2853V29.4288H20.1423V33.1429H25.7135V27.5718ZM33.1417 10.8583H31.2847V22.0006H12.7141V10.8583H10.8571V30.8942L13.0913 33.1429H14.5712V25.7147H27.5706V33.1429H33.1417V10.8583Z" fill="white"/>
</svg>
