<svg width="44" height="44" viewBox="0 0 44 44" fill="none" xmlns="http://www.w3.org/2000/svg">
<path d="M31.6953 27.332C32.2057 27.4323 32.6797 27.61 33.1172 27.8652C33.5547 28.1204 33.9284 28.444 34.2383 28.8359C34.5482 29.2279 34.7943 29.6562 34.9766 30.1211C35.1589 30.5859 35.25 31.0872 35.25 31.625C35.25 32.2266 35.1361 32.7917 34.9082 33.3203C34.6803 33.849 34.3659 34.3138 33.9648 34.7148C33.5638 35.1159 33.099 35.4303 32.5703 35.6582C32.0417 35.8861 31.4766 36 30.875 36H27.375C26.7734 36 26.2083 35.8861 25.6797 35.6582C25.151 35.4303 24.6862 35.1204 24.2852 34.7285C23.8841 34.3366 23.5697 33.8717 23.3418 33.334C23.1139 32.7962 23 32.2266 23 31.625C23 31.1055 23.0866 30.6087 23.2598 30.1348C23.4329 29.6608 23.6745 29.237 23.9844 28.8633C24.2943 28.4896 24.6634 28.166 25.0918 27.8926C25.5202 27.6191 25.9896 27.4323 26.5 27.332V29.1504C26.2357 29.2415 25.9987 29.3691 25.7891 29.5332C25.5794 29.6973 25.3926 29.8887 25.2285 30.1074C25.0645 30.3262 24.946 30.5632 24.873 30.8184C24.8001 31.0736 24.7591 31.3424 24.75 31.625C24.75 31.9896 24.8184 32.3314 24.9551 32.6504C25.0918 32.9694 25.2786 33.2474 25.5156 33.4844C25.7526 33.7214 26.0306 33.9082 26.3496 34.0449C26.6686 34.1816 27.0104 34.25 27.375 34.25H30.875C31.2396 34.25 31.5814 34.1816 31.9004 34.0449C32.2194 33.9082 32.4974 33.7214 32.7344 33.4844C32.9714 33.2474 33.1582 32.9694 33.2949 32.6504C33.4316 32.3314 33.5 31.9896 33.5 31.625C33.5 31.3424 33.459 31.069 33.377 30.8047C33.2949 30.5404 33.1673 30.2988 32.9941 30.0801C32.821 29.8613 32.6296 29.6699 32.4199 29.5059C32.2103 29.3418 31.9596 29.2142 31.668 29.123C31.7227 28.7949 31.75 28.4622 31.75 28.125C31.75 27.9974 31.7454 27.8652 31.7363 27.7285C31.7272 27.5918 31.7135 27.4596 31.6953 27.332ZM26.5 30.5996C26.8919 30.5176 27.2018 30.4128 27.4297 30.2852C27.6576 30.1576 27.8307 29.9889 27.9492 29.7793C28.0677 29.5697 28.1497 29.3327 28.1953 29.0684C28.2409 28.804 28.2591 28.4896 28.25 28.125C28.25 27.7604 28.1816 27.4186 28.0449 27.0996C27.9082 26.7806 27.7214 26.5026 27.4844 26.2656C27.2474 26.0286 26.9694 25.8418 26.6504 25.7051C26.3314 25.5684 25.9896 25.5 25.625 25.5H22.125C21.7604 25.5 21.4186 25.5684 21.0996 25.7051C20.7806 25.8418 20.5026 26.0286 20.2656 26.2656C20.0286 26.5026 19.8418 26.7806 19.7051 27.0996C19.5684 27.4186 19.5 27.7604 19.5 28.125C19.5 28.4167 19.541 28.6901 19.623 28.9453C19.7051 29.2005 19.8327 29.4421 20.0059 29.6699C20.179 29.8978 20.3704 30.0892 20.5801 30.2441C20.7897 30.3991 21.0404 30.5267 21.332 30.627C21.2773 30.9551 21.25 31.2878 21.25 31.625C21.25 31.7526 21.2546 31.8848 21.2637 32.0215C21.2728 32.1582 21.2865 32.2904 21.3047 32.418C20.7943 32.3268 20.3203 32.1491 19.8828 31.8848C19.4453 31.6204 19.0716 31.2969 18.7617 30.9141C18.4518 30.5312 18.2057 30.1029 18.0234 29.6289C17.8411 29.1549 17.75 28.6536 17.75 28.125C17.75 27.5234 17.8639 26.9583 18.0918 26.4297C18.3197 25.901 18.6296 25.4408 19.0215 25.0488C19.4134 24.6569 19.8783 24.3424 20.416 24.1055C20.9538 23.8685 21.5234 23.75 22.125 23.75H25.625C26.2266 23.75 26.7917 23.8639 27.3203 24.0918C27.849 24.3197 28.3092 24.6341 28.7012 25.0352C29.0931 25.4362 29.4076 25.901 29.6445 26.4297C29.8815 26.9583 30 27.5234 30 28.125C30 28.6172 29.9089 29.0957 29.7266 29.5605C29.5443 30.0254 29.2891 30.4538 28.9609 30.8457C28.6328 31.2376 28.2637 31.5658 27.8535 31.8301C27.4434 32.0944 26.9922 32.2904 26.5 32.418V30.5996ZM21.8652 34.25C22.0202 34.569 22.1979 34.8743 22.3984 35.166C22.599 35.4577 22.8314 35.7357 23.0957 36H12.5V32.5H9V8H30V15.5059L33.5 19.0059V26.1152C33.2083 25.9785 32.9258 25.8691 32.6523 25.7871C32.3789 25.7051 32.0781 25.6276 31.75 25.5547V20.25H24.75V13.25H14.25V34.25H21.8652ZM30.5059 18.5L26.5 14.4941V18.5H30.5059ZM12.5 30.75V11.5H25.9941L28.25 13.7559V9.75H10.75V30.75H12.5Z" fill="white"/>
</svg>
