<svg width="44" height="44" viewBox="0 0 44 44" fill="none" xmlns="http://www.w3.org/2000/svg">
<path d="M13.25 29H23.75V30.75H11.5C11.2539 30.75 11.026 30.7956 10.8164 30.8867C10.6068 30.9779 10.4199 31.1009 10.2559 31.2559C10.0918 31.4108 9.96875 31.5931 9.88672 31.8027C9.80469 32.0124 9.75911 32.2448 9.75 32.5C9.75 32.7461 9.79557 32.974 9.88672 33.1836C9.97786 33.3932 10.1009 33.5801 10.2559 33.7441C10.4108 33.9082 10.5931 34.0312 10.8027 34.1133C11.0124 34.1953 11.2448 34.2409 11.5 34.25H23.75V36H11.5C11.0169 36 10.5658 35.9089 10.1465 35.7266C9.72721 35.5443 9.35352 35.2936 9.02539 34.9746C8.69727 34.6556 8.44661 34.2865 8.27344 33.8672C8.10026 33.4479 8.00911 32.9922 8 32.5C8 32.0169 8.09115 31.5658 8.27344 31.1465C8.45573 30.7272 8.70638 30.3535 9.02539 30.0254C9.3444 29.6973 9.71354 29.4466 10.1328 29.2734C10.5521 29.1003 11.0078 29.0091 11.5 29V11.5C11.5 11.0169 11.5911 10.5658 11.7734 10.1465C11.9557 9.72721 12.2064 9.35352 12.5254 9.02539C12.8444 8.69727 13.2135 8.44661 13.6328 8.27344C14.0521 8.10026 14.5078 8.00911 15 8H32.5C32.9831 8 33.4342 8.09115 33.8535 8.27344C34.2728 8.45573 34.6465 8.70638 34.9746 9.02539C35.3027 9.3444 35.5534 9.71354 35.7266 10.1328C35.8997 10.5521 35.9909 11.0078 36 11.5C36 11.9831 35.9089 12.4342 35.7266 12.8535C35.5443 13.2728 35.2936 13.6465 34.9746 13.9746C34.6556 14.3027 34.2865 14.5534 33.8672 14.7266C33.4479 14.8997 32.9922 14.9909 32.5 15H30.75V24.625L29 23.75V11.5C29 10.862 29.1549 10.2786 29.4648 9.75H15C14.7539 9.75 14.526 9.79557 14.3164 9.88672C14.1068 9.97786 13.9245 10.1009 13.7695 10.2559C13.6146 10.4108 13.487 10.5977 13.3867 10.8164C13.2865 11.0352 13.2409 11.263 13.25 11.5V29ZM34.25 11.5C34.25 11.2539 34.2044 11.026 34.1133 10.8164C34.0221 10.6068 33.8991 10.4245 33.7441 10.2695C33.5892 10.1146 33.4023 9.98698 33.1836 9.88672C32.9648 9.78646 32.737 9.74089 32.5 9.75C32.2539 9.75 32.026 9.79557 31.8164 9.88672C31.6068 9.97786 31.4245 10.1009 31.2695 10.2559C31.1146 10.4108 30.987 10.5977 30.8867 10.8164C30.7865 11.0352 30.7409 11.263 30.75 11.5V13.25H32.5C32.7461 13.25 32.974 13.2044 33.1836 13.1133C33.3932 13.0221 33.5755 12.8991 33.7305 12.7441C33.8854 12.5892 34.013 12.4023 34.1133 12.1836C34.2135 11.9648 34.2591 11.737 34.25 11.5ZM25.5 23.75L36 29.8066L25.5 35.877V23.75ZM27.25 32.8418L32.5 29.8066L27.25 26.7852V32.8418Z" fill="white"/>
</svg>
