<svg width="44" height="44" viewBox="0 0 44 44" fill="none" xmlns="http://www.w3.org/2000/svg">
<path d="M35.25 20.25V22H9V20.25H21.25V8H23V20.25H35.25ZM12.5 18.5H10.75V11.5H12.5V18.5ZM16 18.5H14.25V13.25H16V18.5ZM19.5 18.5H17.75V9.75H19.5V18.5ZM31.75 11.5H24.75V9.75H31.75V11.5ZM30 15H24.75V13.25H30V15ZM33.5 18.5H24.75V16.75H33.5V18.5ZM10.75 23.75H17.75V36H10.75V23.75ZM12.5 34.25H16V25.5H12.5V34.25ZM28.25 23.75H35.25V36H28.25V23.75ZM30 34.25H33.5V25.5H30V34.25ZM19.5 23.75H26.5V36H19.5V23.75ZM21.25 34.25H24.75V25.5H21.25V34.25Z" fill="white"/>
</svg>
