<svg width="44" height="44" viewBox="0 0 44 44" fill="none" xmlns="http://www.w3.org/2000/svg">
<path d="M22.375 16.75C23.4596 16.75 24.4805 16.9551 25.4375 17.3652C26.3945 17.7754 27.2285 18.3405 27.9395 19.0605C28.6504 19.7806 29.2109 20.6146 29.6211 21.5625C30.0312 22.5104 30.2409 23.5312 30.25 24.625C30.25 25.7096 30.0449 26.7305 29.6348 27.6875C29.2246 28.6445 28.6595 29.4785 27.9395 30.1895C27.2194 30.9004 26.3854 31.4609 25.4375 31.8711C24.4896 32.2812 23.4688 32.4909 22.375 32.5C21.2904 32.5 20.2695 32.2949 19.3125 31.8848C18.3555 31.4746 17.5215 30.9095 16.8105 30.1895C16.0996 29.4694 15.5391 28.6354 15.1289 27.6875C14.7188 26.7396 14.5091 25.7188 14.5 24.625C14.5 23.5404 14.7051 22.5195 15.1152 21.5625C15.5254 20.6055 16.0905 19.7715 16.8105 19.0605C17.5306 18.3496 18.3646 17.7891 19.3125 17.3789C20.2604 16.9688 21.2812 16.7591 22.375 16.75ZM28.1445 22C27.8073 21.2617 27.3424 20.61 26.75 20.0449C26.1576 19.4798 25.4876 19.0423 24.7402 18.7324C24.9954 19.252 25.196 19.7852 25.3418 20.332C25.4876 20.8789 25.6061 21.4349 25.6973 22H28.1445ZM28.7188 24.625C28.7188 24.4792 28.7142 24.3333 28.7051 24.1875C28.696 24.0417 28.6823 23.8958 28.6641 23.75H25.8613V24.625C25.8613 24.9167 25.8568 25.2083 25.8477 25.5H28.6641C28.6823 25.3542 28.696 25.2083 28.7051 25.0625C28.7142 24.9167 28.7188 24.7708 28.7188 24.625ZM22.375 30.9688C22.457 30.9688 22.5345 30.9414 22.6074 30.8867C22.6803 30.832 22.7441 30.7773 22.7988 30.7227C22.9811 30.5495 23.1452 30.3171 23.291 30.0254C23.4368 29.7337 23.5645 29.4238 23.6738 29.0957C23.7832 28.7676 23.8743 28.4395 23.9473 28.1113C24.0202 27.7832 24.0794 27.4961 24.125 27.25H20.584C20.6478 27.6966 20.7344 28.1387 20.8438 28.5762C20.9531 29.0137 21.1172 29.4421 21.3359 29.8613C21.3724 29.9342 21.4271 30.0345 21.5 30.1621C21.5729 30.2897 21.6595 30.4128 21.7598 30.5312C21.86 30.6497 21.9603 30.75 22.0605 30.832C22.1608 30.9141 22.2656 30.9596 22.375 30.9688ZM24.3164 25.5C24.3255 25.3542 24.3301 25.2083 24.3301 25.0625C24.3301 24.9167 24.3346 24.7708 24.3438 24.625V24.1875C24.3438 24.0417 24.3346 23.8958 24.3164 23.75H20.4199V24.1875C20.4199 24.3333 20.4154 24.4792 20.4062 24.625V25.0625C20.4062 25.2083 20.4108 25.3542 20.4199 25.5H24.3164ZM16.0312 24.625C16.0312 24.7708 16.0358 24.9167 16.0449 25.0625C16.054 25.2083 16.0677 25.3542 16.0859 25.5H18.8887C18.8704 25.2083 18.8659 24.9167 18.875 24.625C18.8841 24.3333 18.8887 24.0417 18.8887 23.75H16.0859C16.0677 23.8958 16.054 24.0417 16.0449 24.1875C16.0358 24.3333 16.0312 24.4792 16.0312 24.625ZM22.375 18.2812C22.2747 18.2812 22.1745 18.3268 22.0742 18.418C21.974 18.5091 21.8737 18.6139 21.7734 18.7324C21.6732 18.8509 21.5866 18.9785 21.5137 19.1152C21.4408 19.252 21.3815 19.3522 21.3359 19.416C21.1445 19.7897 20.9896 20.209 20.8711 20.6738C20.7526 21.1387 20.6569 21.5807 20.584 22H24.1523C24.0794 21.5625 23.9837 21.1296 23.8652 20.7012C23.7467 20.2728 23.5872 19.8626 23.3867 19.4707C23.3594 19.416 23.3092 19.3249 23.2363 19.1973C23.1634 19.0697 23.0723 18.9329 22.9629 18.7871C22.8535 18.6413 22.7533 18.5228 22.6621 18.4316C22.571 18.3405 22.4753 18.2904 22.375 18.2812ZM19.9551 18.7598C19.2168 19.0697 18.556 19.5026 17.9727 20.0586C17.3893 20.6146 16.9336 21.2617 16.6055 22H19.0391C19.1211 21.4531 19.2305 20.9017 19.3672 20.3457C19.5039 19.7897 19.6999 19.2611 19.9551 18.7598ZM16.6055 27.25C16.9336 27.9792 17.3848 28.6217 17.959 29.1777C18.5332 29.7337 19.1895 30.1667 19.9277 30.4766C19.6908 29.9753 19.5039 29.4512 19.3672 28.9043C19.2305 28.3574 19.1211 27.806 19.0391 27.25H16.6055ZM24.7539 30.5039C25.5104 30.2031 26.1803 29.7702 26.7637 29.2051C27.347 28.64 27.8073 27.9883 28.1445 27.25H25.6836C25.5924 27.7969 25.474 28.3483 25.3281 28.9043C25.1823 29.4603 24.9909 29.9935 24.7539 30.5039ZM33.75 15.5059V36H11V8H26.2441L33.75 15.5059ZM26.75 15H30.7559L26.75 10.9941V15ZM32 34.25V16.75H25V9.75H12.75V34.25H32Z" fill="white"/>
</svg>
