<svg width="44" height="44" viewBox="0 0 44 44" fill="none" xmlns="http://www.w3.org/2000/svg">
<path d="M25.7734 24.4199L22.0684 28.125L23.2988 29.3555L20.209 32.459C19.6348 33.0332 18.974 33.4753 18.2266 33.7852C17.4792 34.0951 16.6953 34.25 15.875 34.25C15.2096 34.25 14.5671 34.1497 13.9473 33.9492C13.3275 33.7487 12.7487 33.4434 12.2109 33.0332L9.49023 35.7402L8.25977 34.5098L10.9668 31.7891C10.5658 31.2604 10.265 30.6862 10.0645 30.0664C9.86393 29.4466 9.75911 28.7995 9.75 28.125C9.75 27.3138 9.90495 26.5345 10.2148 25.7871C10.5247 25.0397 10.9668 24.3743 11.541 23.791L14.6445 20.7012L15.875 21.9316L19.5801 18.2266L20.8242 19.457L17.1055 23.1758L20.8242 26.8945L24.543 23.1758L25.7734 24.4199ZM15.875 32.5C16.4583 32.5 17.0143 32.3906 17.543 32.1719C18.0716 31.9531 18.5456 31.6341 18.9648 31.2148L20.8242 29.3555L14.6445 23.1758L12.7852 25.0352C12.375 25.4453 12.0605 25.9147 11.8418 26.4434C11.623 26.972 11.5091 27.5326 11.5 28.125C11.5 28.7266 11.6139 29.2917 11.8418 29.8203C12.0697 30.349 12.3796 30.8138 12.7715 31.2148C13.1634 31.6159 13.6283 31.9303 14.166 32.1582C14.7038 32.3861 15.2734 32.5 15.875 32.5ZM33.0332 12.2109C33.4342 12.7396 33.735 13.3138 33.9355 13.9336C34.1361 14.5534 34.2409 15.2005 34.25 15.875C34.25 16.6862 34.0951 17.4655 33.7852 18.2129C33.4753 18.9603 33.0332 19.6257 32.459 20.209L29.3555 23.2988L20.7012 14.6445L23.791 11.541C24.3652 10.9668 25.026 10.5247 25.7734 10.2148C26.5208 9.90495 27.3047 9.75 28.125 9.75C28.7904 9.75 29.4329 9.85026 30.0527 10.0508C30.6725 10.2513 31.2513 10.5566 31.7891 10.9668L34.5098 8.25977L35.7402 9.49023L33.0332 12.2109ZM31.2148 18.9648C31.625 18.5547 31.9395 18.0853 32.1582 17.5566C32.377 17.028 32.4909 16.4674 32.5 15.875C32.5 15.2734 32.3861 14.7083 32.1582 14.1797C31.9303 13.651 31.6159 13.1908 31.2148 12.7988C30.8138 12.4069 30.349 12.0924 29.8203 11.8555C29.2917 11.6185 28.7266 11.5 28.125 11.5C27.5417 11.5 26.9857 11.6094 26.457 11.8281C25.9284 12.0469 25.4544 12.3659 25.0352 12.7852L23.1758 14.6445L29.3555 20.8242L31.2148 18.9648Z" fill="white"/>
</svg>
