<svg width="44" height="44" viewBox="0 0 44 44" fill="none" xmlns="http://www.w3.org/2000/svg">
<path d="M22 34.25C23.4036 34.25 24.748 34.0358 26.0332 33.6074C27.3184 33.179 28.4941 32.5684 29.5605 31.7754C30.627 30.9824 31.5521 30.0345 32.3359 28.9316C33.1198 27.8288 33.7214 26.5983 34.1406 25.2402L35.8086 25.7598C35.3529 27.2819 34.6738 28.6673 33.7715 29.916C32.8691 31.1647 31.8118 32.2448 30.5996 33.1562C29.3874 34.0677 28.0475 34.765 26.5801 35.248C25.1126 35.7311 23.5859 35.9818 22 36C20.7513 36 19.5345 35.8451 18.3496 35.5352C17.1647 35.2253 16.0482 34.7786 15 34.1953C13.9518 33.612 12.9766 32.8965 12.0742 32.0488C11.1719 31.2012 10.3971 30.2441 9.75 29.1777V32.5H8V25.5H15V27.25H10.6797C11.2174 28.3164 11.8828 29.278 12.6758 30.1348C13.4688 30.9915 14.362 31.7253 15.3555 32.3359C16.349 32.9466 17.4017 33.416 18.5137 33.7441C19.6257 34.0723 20.7878 34.2409 22 34.25ZM36 11.5V18.5H29V16.75H33.3203C32.7826 15.6836 32.1172 14.722 31.3242 13.8652C30.5312 13.0085 29.638 12.2747 28.6445 11.6641C27.651 11.0534 26.5983 10.584 25.4863 10.2559C24.3743 9.92773 23.2122 9.75911 22 9.75C20.5964 9.75 19.252 9.96419 17.9668 10.3926C16.6816 10.821 15.5059 11.4316 14.4395 12.2246C13.373 13.0176 12.4479 13.9655 11.6641 15.0684C10.8802 16.1712 10.2786 17.4017 9.85938 18.7598L8.19141 18.2402C8.64714 16.7272 9.32617 15.3418 10.2285 14.084C11.1309 12.8262 12.1882 11.7461 13.4004 10.8438C14.6126 9.94141 15.9525 9.24414 17.4199 8.75195C18.8874 8.25977 20.4141 8.00911 22 8C23.2487 8 24.4655 8.15495 25.6504 8.46484C26.8353 8.77474 27.9518 9.22135 29 9.80469C30.0482 10.388 31.0234 11.1035 31.9258 11.9512C32.8281 12.7988 33.6029 13.7559 34.25 14.8223V11.5H36Z" fill="white"/>
</svg>
