<?xml version="1.0" encoding="utf-8"?>
<svg xmlns="http://www.w3.org/2000/svg" height="32" width="32" viewBox="0 0 32 32">
  <g>
    <path id="path1" transform="rotate(0,16,16) translate(0,4) scale(1,1)  " fill="#000000" d="M22.014408,8.9960966C22.270277,8.9997215 22.525021,9.1009722 22.718016,9.2989731 23.102005,9.6949749 23.093006,10.328978 22.696016,10.712978L14.16224,19.003014 9.3043671,14.283994C8.9073772,13.898993 8.897377,13.26699 9.2823677,12.869987 9.6683569,12.474986 10.301341,12.463986 10.69633,12.849988L14.16224,16.215002 21.304052,9.2789726C21.501549,9.0864716,21.758541,8.9924717,22.014408,8.9960966z M5,4.000001L10,4.000001C10.553,4.000001 11,4.4480009 11,5.000001 11,5.552001 10.553,6.000001 10,6.000001L5,6.000001C4.447,6.000001 4,5.552001 4,5.000001 4,4.4480009 4.447,4.000001 5,4.000001z M2,2L2,22 30,22 30,6 16.544006,6C14.81601,6,13.335022,4.8259888,12.94101,3.1440125L12.673004,2z M1.7700195,0L12.911011,0C13.700012,0,14.386017,0.54400635,14.56601,1.3120117L14.888,2.6879883C15.068024,3.4559937,15.753998,4,16.544006,4L30.230011,4C31.208008,4,32,4.7919922,32,5.769989L32,22.230011C32,23.208008,31.208008,24,30.230011,24L1.7700195,24C0.79202271,24,0,23.208008,0,22.230011L0,1.769989C0,0.79199219,0.79202271,0,1.7700195,0z" />
  </g>
</svg>

