<?xml version="1.0" encoding="utf-8"?>
<svg xmlns="http://www.w3.org/2000/svg" height="32" width="32" viewBox="0 0 32 32">
  <g>
    <path id="path1" transform="rotate(0,16,16) translate(0,0.499997138977051) scale(1,1)  " fill="#000000" d="M6.625,21.515017L25.375,21.515017 25.375,23.515017 6.625,23.515017z M6.625,12.159997L25.375,12.159997 25.375,14.159997 6.625,14.159997z M2,5.7400045L2,29.000006 30,29.000006 30,5.7400045 25,5.7400045 25,8 23,8 23,5.7400045 9,5.7400045 9,8 7,8 7,5.7400045z M7,0L9,0 9,3.7400055 23,3.7400055 23,0 25,0 25,3.7400055 32,3.7400055 32,31.000006 0,31.000006 0,3.7400055 7,3.7400055z" />
  </g>
</svg>

