<?xml version="1.0" encoding="utf-8"?>
<svg xmlns="http://www.w3.org/2000/svg" height="32" width="32" viewBox="0 0 32 32">
  <g>
    <path id="path1" transform="rotate(0,16,16) translate(9.5367431640625E-07,0) scale(1,1)  " fill="#000000" d="M12.000397,21.999981L12,22.000001 12,30.000001 29.999999,30.000001 29.999999,22.000001 29.999602,21.999981z M13,16L13,19.999981 28.999999,19.999981 28.999999,18 18.273,18C17.968,18.000001,17.68,17.860001,17.49,17.622001L16.202,16z M12,14.000001L16.685,14.000001C16.99,14.000001,17.278,14.140001,17.468,14.378001L18.756,16 29.999999,16C30.551999,16.000001,30.999999,16.447001,30.999999,17L30.999999,20.000001C31.551999,20.000001,31.999999,20.447001,31.999999,21.000001L31.999999,31.000001C31.999999,31.553,31.551999,32.000001,30.999999,32.000001L11,32.000001C10.448,32.000001,10,31.553,9.9999999,31.000001L9.9999999,21.000001C10,20.447001,10.448,20.000001,11,20.000001L11,15.000001C11,14.447001,11.448,14.000001,12,14.000001z M3,2L3,7.9999952 25,7.9999952 25,5.000001 10.087,5.000001C9.7590001,5.000001,9.451,4.8390007,9.2649996,4.5680008L7.4899998,2z M2,0L8.0149996,0C8.3429999,0,8.651,0.16100121,8.8369997,0.43200111L10.612,3 26,3C26.552,3,27,3.4470005,27,4.000001L27,8.000001C27.552,8.000001,27.999999,8.4470005,27.999999,9.000001L27.999999,14.000001 26,14.000001 26,10.000001 2.0001192,9.9999952 2,21.000001 7.9999998,21.000001 7.9999998,23.000001 1,23.000001C0.44799995,23.000001,0,22.553001,0,22.000001L0,9.000001C0,8.4470005,0.44799995,8.000001,1,8.000001L1,1C1,0.4470005,1.448,0,2,0z" />
  </g>
</svg>

