<?xml version="1.0" encoding="utf-8"?>
<svg xmlns="http://www.w3.org/2000/svg" height="32" width="32" viewBox="0 0 32 32">
  <g>
    <path id="path1" transform="rotate(0,16,16) translate(1.10550104314076,0) scale(0.999999880790725,0.999999880790725)  " fill="#000000" d="M8.3039721,16.382008C6.5379771,17.099003,2.0000039,19.433002,2.0000039,24.476001L2.0000039,30.000004 27.788998,30.000004 27.788998,24.476001C27.788998,19.718006,23.287035,17.219006,21.514997,16.420002L15.029022,26.274005z M20.720013,13.989002L21.451033,14.236004C21.790998,14.351002,29.789001,17.137005,29.789001,24.476001L29.789001,32.000002 0,32.000002 0,24.476001C-1.8566425E-08,16.854,8.3189868,14.245007,8.4029712,14.220005L9.1070126,14.006001 14.005001,21.210528 14.005001,16.159997 16.005001,16.159997 16.005001,21.153016z M14.894987,2C12.092984,2 9.8139819,4.2799997 9.8139819,7.0819993 9.8139819,9.8829989 12.092984,12.162999 14.894987,12.162998 17.696989,12.162999 19.97599,9.8829989 19.97599,7.0819993 19.97599,4.2799997 17.696989,2 14.894987,2z M14.894987,0C18.79899,0 21.975992,3.177 21.975992,7.0819993 21.975992,10.985999 18.79899,14.162998 14.894987,14.162998 10.990983,14.162998 7.81398,10.985999 7.81398,7.0819993 7.81398,3.177 10.990983,0 14.894987,0z" />
  </g>
</svg>

