<?xml version="1.0" encoding="utf-8"?>
<svg xmlns="http://www.w3.org/2000/svg" height="32" width="32" viewBox="0 0 32 32">
  <g>
    <path id="path1" transform="rotate(0,16,16) translate(0,3.12850458794668) scale(0.999999642372259,0.999999642372259)  " fill="#000000" d="M24.973005,19.743C23.870008,19.743 22.973005,20.639973 22.973006,21.743 22.973005,22.845966 23.870008,23.743 24.973005,23.743 26.076002,23.743 26.973005,22.845966 26.973005,21.743 26.973005,20.639973 26.076002,19.743 24.973005,19.743z M6.7500124,19.742975C5.6470118,19.742975 4.7500114,20.639975 4.7500114,21.742975 4.7500114,22.845975 5.6470118,23.742975 6.7500124,23.742975 7.8530121,23.742975 8.7500124,22.845975 8.7500124,21.742975 8.7500124,20.639975 7.8530121,19.742975 6.7500124,19.742975z M2.0000114,14L2.0000114,20 3.1502094,20 3.2334213,19.837728C3.9114971,18.59092 5.233387,17.742975 6.7500124,17.742975 8.2666368,17.742975 9.5885277,18.59092 10.266602,19.837728L10.349814,20 11.000012,20 11.000012,14z M7.2948408,7L3.1337128,12 10.664944,12 10.664944,7z M13.000012,2L13.000012,12 13.000012,20 21.373205,20 21.456417,19.83773C22.134492,18.590919 23.456385,17.743 24.973005,17.743 26.489626,17.743 27.811518,18.590919 28.489594,19.83773L28.572806,20 30.000012,20 30.000012,2z M11.000012,0L32.000012,0 32.000012,22 28.963869,22 28.952319,22.151458C28.747145,24.166237 27.041124,25.743 24.973005,25.743 22.904886,25.743 21.198865,24.166237 20.993692,22.151458L20.982142,22 13.000012,22 11.000012,22 10.740874,22 10.729326,22.151434C10.524153,24.166217 8.8181372,25.742975 6.7500124,25.742975 4.6818867,25.742975 2.9758701,24.166217 2.7706985,22.151434L2.7591496,22 1.1444092E-05,22 1.1444092E-05,13.5C1.1444092E-05,13.448312,0.0026397705,13.397226,0.0077724457,13.346869L0.026144028,13.226855 0.024738312,13.221542C-0.04331398,12.921488,0.030117035,12.602125,0.2316246,12.36L6.0568027,5.3599997C6.246809,5.132,6.5288172,5,6.8258266,5L11.000012,5z" />
  </g>
</svg>

