<?xml version="1.0" encoding="utf-8"?>
<svg xmlns="http://www.w3.org/2000/svg" height="32" width="32" viewBox="0 0 32 32">
  <g>
    <path id="path1" transform="rotate(0,16,16) translate(0,4) scale(1,1)  " fill="#000000" d="M17.843988,8.9990072C16.105993,8.9990072 14.690998,10.415007 14.690998,12.154006 14.690998,13.894005 16.105993,15.310004 17.843988,15.310004 19.581984,15.310004 20.996979,13.894005 20.996979,12.154006 20.996979,10.415007 19.581984,8.9990072 17.843988,8.9990072z M17.843988,6.9990082C20.68598,6.9990082 22.996973,9.3110075 22.996973,12.154006 22.996973,14.997005 20.68598,17.310003 17.843988,17.310003 16.867054,17.310003 15.952865,17.03669 15.173721,16.562487L15.075657,16.499521 10.388966,21.001989 9.0039616,19.55999 13.629471,15.115454 13.572087,15.03476C13.015987,14.211723 12.691004,13.220131 12.691004,12.154006 12.691004,9.3110075 15.001997,6.9990082 17.843988,6.9990082z M5,4.000001L10,4.000001C10.553,4.000001 11,4.4480009 11,5.000001 11,5.552001 10.553,6.000001 10,6.000001L5,6.000001C4.447,6.000001 4,5.552001 4,5.000001 4,4.4480009 4.447,4.000001 5,4.000001z M2,2L2,22 30,22 30,6 16.543945,6C14.817017,6,13.334961,4.8259888,12.940918,3.1440125L12.672974,2z M1.7700195,0L12.911011,0C13.699951,0,14.385986,0.54400635,14.565918,1.3120117L14.887939,2.6879883C15.067993,3.4559937,15.754028,4,16.543945,4L30.22998,4C31.207031,4,32,4.7919922,32,5.769989L32,22.230011C32,23.208008,31.207031,24,30.22998,24L1.7700195,24C0.79199219,24,0,23.208008,0,22.230011L0,1.769989C0,0.79199219,0.79199219,0,1.7700195,0z" />
  </g>
</svg>

