<svg width="16" height="16" viewBox="0 0 16 16" fill="none" xmlns="http://www.w3.org/2000/svg">
<mask id="mask0" mask-type="alpha" maskUnits="userSpaceOnUse" x="0" y="0" width="16" height="16">
<path fill-rule="evenodd" clip-rule="evenodd" d="M0.397255 10.0683C1.20743 13.0919 4.7975 15.8109 8.93054 15.2149C9.46997 15.1371 9.78299 14.5892 9.64194 14.0627L11.9387 14.9232C12.1579 15.0053 12.4051 14.9673 12.5845 14.8168C15.5847 12.3014 16.5586 9.3691 15.6508 5.98125C14.8407 2.95761 11.2506 0.238611 7.11755 0.834666C6.57812 0.912461 6.2651 1.46037 6.40615 1.9868L4.10944 1.12638C3.89015 1.04422 3.64299 1.08226 3.46354 1.23271C0.463361 3.74816 -0.51052 6.68043 0.397255 10.0683Z" fill="#C4C4C4"/>
</mask>
<g mask="url(#mask0)">
<path d="M6.15039 1.0341C10.6788 -0.179284 14.7777 2.72445 15.6505 5.98173C16.5871 9.47735 15.5205 12.4879 12.2918 15.0561L9.64152 14.0632L8.87629 11.2074C8.82864 11.0295 8.93471 10.8479 9.10862 10.7875C10.1503 10.4259 11.0317 9.7007 11.5868 8.73937C12.1975 7.68145 12.3631 6.42425 12.0469 5.24432C11.7307 4.06438 10.9588 3.05837 9.90087 2.44758C8.84297 1.8368 7.58577 1.67128 6.40584 1.98745L6.15039 1.0341Z" fill="url(#paint0_linear)"/>
<g filter="url(#filter0_f)">
<path d="M6.63374 5.71403C6.96782 5.57075 7.18274 5.2207 7.08679 4.86255L9.64127 14.3961C8.46134 14.7122 7.20412 14.5467 6.14622 13.9359C5.08832 13.3251 4.31637 12.3191 4.00022 11.1392C3.68405 9.95923 3.84957 8.70203 4.46034 7.64413C4.96039 6.77803 5.72532 6.10362 6.63374 5.71403Z" fill="black" fill-opacity="0.32"/>
<path d="M9.41378 11.0023C9.0797 11.1456 8.86478 11.4956 8.96075 11.8538L6.40625 2.32029C7.58618 2.00412 8.8434 2.16964 9.9013 2.78042C10.9592 3.39119 11.7311 4.3972 12.0473 5.57715C12.3635 6.75709 12.198 8.01429 11.5872 9.0722C11.0871 9.93829 10.3222 10.6127 9.41378 11.0023Z" fill="black" fill-opacity="0.32"/>
</g>
<g filter="url(#filter1_f)">
<path d="M6.63374 5.44401C6.96782 5.30075 7.18274 4.95068 7.08679 4.59253L9.64127 14.126C8.46134 14.4422 7.20412 14.2767 6.14622 13.6659C5.08832 13.0551 4.31637 12.0491 4.00022 10.8692C3.68405 9.68923 3.84957 8.43201 4.46034 7.37411C4.96039 6.50801 5.72532 5.8336 6.63374 5.44401Z" fill="black" fill-opacity="0.24"/>
<path d="M9.41378 10.7323C9.0797 10.8755 8.86478 11.2256 8.96075 11.5837L6.40625 2.05027C7.58618 1.7341 8.8434 1.89962 9.9013 2.5104C10.9592 3.12118 11.7311 4.12718 12.0473 5.30713C12.3635 6.48706 12.198 7.74428 11.5872 8.80218C11.0871 9.66826 10.3222 10.3427 9.41378 10.7323Z" fill="black" fill-opacity="0.24"/>
</g>
<path fill-rule="evenodd" clip-rule="evenodd" d="M6.63374 5.38152C6.96782 5.23825 7.18274 4.88818 7.08679 4.53003L7.59934 6.4429L6.40627 1.98777C7.5862 1.6716 8.84342 1.83712 9.90132 2.4479C10.9592 3.05868 11.7312 4.0647 12.0473 5.24463C12.3635 6.42457 12.198 7.68178 11.5872 8.73968C11.0872 9.60577 10.3222 10.2802 9.4138 10.6698C9.08949 10.8089 8.87607 11.1428 8.95167 11.4899L9.64127 14.0635C8.46134 14.3797 7.20412 14.2142 6.14622 13.6034C5.08832 12.9926 4.31637 11.9866 4.00022 10.8067C3.68405 9.62673 3.84957 8.36952 4.46033 7.31162C4.96039 6.44552 5.72532 5.7711 6.63374 5.38152Z" fill="url(#paint1_linear)"/>
<g filter="url(#filter2_f)">
<path d="M9.89686 15.3499C5.36844 16.5632 1.26955 13.6595 0.396765 10.4022C-0.539881 6.9066 0.526729 3.89602 3.75548 1.32788L6.40571 2.32075L7.08466 4.85462C7.17996 5.21027 6.96613 5.57144 6.62794 5.71704C5.72213 6.107 4.95943 6.78039 4.46048 7.64459C3.84969 8.70249 3.68418 9.9597 4.00034 11.1396C4.31651 12.3196 5.08844 13.3256 6.14636 13.9364C7.20426 14.5472 8.46146 14.7127 9.64141 14.3965L9.89686 15.3499Z" fill="black" fill-opacity="0.32"/>
</g>
<g filter="url(#filter3_f)">
<path d="M9.89686 15.0798C5.36844 16.2932 1.26955 13.3895 0.396765 10.1322C-0.539881 6.63658 0.526729 3.626 3.75548 1.05786L6.40571 2.05073L7.08466 4.58461C7.17996 4.94025 6.96613 5.30143 6.62794 5.44701C5.72213 5.83698 4.95943 6.51036 4.46048 7.37456C3.84969 8.43246 3.68418 9.68968 4.00034 10.8696C4.31651 12.0495 5.08844 13.0556 6.14636 13.6663C7.20426 14.2771 8.46146 14.4426 9.64141 14.1265L9.89686 15.0798Z" fill="black" fill-opacity="0.24"/>
</g>
<path d="M9.89686 15.0164C5.36844 16.2297 1.26955 13.326 0.396765 10.0687C-0.539881 6.57311 0.526729 3.56252 3.75548 0.994385L6.40571 1.98725L7.08466 4.52114C7.17996 4.87677 6.96613 5.23794 6.62794 5.38354C5.72213 5.77351 4.95943 6.44689 4.46048 7.31109C3.84969 8.36899 3.68418 9.62621 4.00034 10.8061C4.31651 11.9861 5.08844 12.9921 6.14636 13.6029C7.20426 14.2137 8.46146 14.3792 9.64141 14.063L9.89686 15.0164Z" fill="url(#paint2_linear)"/>
</g>
<defs>
<filter id="filter0_f" x="-4.15674" y="-5.83667" width="24.361" height="28.3897" filterUnits="userSpaceOnUse" color-interpolation-filters="sRGB">
<feFlood flood-opacity="0" result="BackgroundImageFix"/>
<feBlend mode="normal" in="SourceGraphic" in2="BackgroundImageFix" result="shape"/>
<feGaussianBlur stdDeviation="4" result="effect1_foregroundBlur"/>
</filter>
<filter id="filter1_f" x="3.08326" y="1.13331" width="9.881" height="13.9097" filterUnits="userSpaceOnUse" color-interpolation-filters="sRGB">
<feFlood flood-opacity="0" result="BackgroundImageFix"/>
<feBlend mode="normal" in="SourceGraphic" in2="BackgroundImageFix" result="shape"/>
<feGaussianBlur stdDeviation="0.38" result="effect1_foregroundBlur"/>
</filter>
<filter id="filter2_f" x="-7.92969" y="-6.67212" width="25.8265" height="30.3036" filterUnits="userSpaceOnUse" color-interpolation-filters="sRGB">
<feFlood flood-opacity="0" result="BackgroundImageFix"/>
<feBlend mode="normal" in="SourceGraphic" in2="BackgroundImageFix" result="shape"/>
<feGaussianBlur stdDeviation="4" result="effect1_foregroundBlur"/>
</filter>
<filter id="filter3_f" x="-0.689687" y="0.297861" width="11.3465" height="15.8236" filterUnits="userSpaceOnUse" color-interpolation-filters="sRGB">
<feFlood flood-opacity="0" result="BackgroundImageFix"/>
<feBlend mode="normal" in="SourceGraphic" in2="BackgroundImageFix" result="shape"/>
<feGaussianBlur stdDeviation="0.38" result="effect1_foregroundBlur"/>
</filter>
<linearGradient id="paint0_linear" x1="15.3745" y1="17.2504" x2="5.41617" y2="-7.58306" gradientUnits="userSpaceOnUse">
<stop stop-color="#205B54"/>
<stop offset="0.475177" stop-color="#177A6E"/>
<stop offset="1" stop-color="#0E9C8B"/>
</linearGradient>
<linearGradient id="paint1_linear" x1="14.2914" y1="20.7921" x2="16.7599" y2="-2.82563" gradientUnits="userSpaceOnUse">
<stop stop-color="#0E9C8B"/>
<stop offset="1" stop-color="#54C7B8"/>
</linearGradient>
<linearGradient id="paint2_linear" x1="-0.500284" y1="-2.5413" x2="11.6247" y2="20.5005" gradientUnits="userSpaceOnUse">
<stop stop-color="#CBF8F3"/>
<stop offset="1" stop-color="#5CD9CA"/>
</linearGradient>
</defs>
</svg>
